<?xml version="1.0" encoding="utf-8"?>
<!-- Generator: Adobe Illustrator 21.1.0, SVG Export Plug-In . SVG Version: 6.00 Build 0)  -->
<svg version="1.1" id="Layer_1" xmlns="http://www.w3.org/2000/svg" xmlns:xlink="http://www.w3.org/1999/xlink" x="0px" y="0px"
	 viewBox="0 0 205 75" style="enable-background:new 0 0 205 75;" xml:space="preserve">
<style type="text/css">
	.st0{fill:#FFFFFF;}
	.st1{fill:#00757A;}
	.st2{fill:#94D6DC;}
	.st3{fill:#C2E6E5;}
</style>
<g>
	<path class="st0" d="M0.5,29.1h4.9c1.7,0,3.3,0.3,4.8,0.9c1.2,0.5,2.3,1.3,3.2,2.3c0.8,1,1.4,2.1,1.8,3.3c0.4,1.2,0.6,2.4,0.6,3.7
		c0,1.4-0.2,2.7-0.8,4c-0.5,1.1-1.2,2.1-2.1,3c-0.9,0.8-1.9,1.5-3,1.9c-1.2,0.4-2.4,0.7-3.6,0.7H0.5V29.1z M5.8,45.7
		c0.9,0,1.8-0.1,2.7-0.4c1.6-0.5,2.9-1.8,3.6-3.4c0.4-0.9,0.5-1.9,0.5-2.9c0-1.1-0.1-2.2-0.6-3.2c-0.4-0.8-0.9-1.5-1.5-2.1
		c-0.6-0.5-1.3-0.9-2.1-1.2c-0.7-0.2-1.4-0.4-2.2-0.4H3.7v13.5H5.8z M24.1,48.9V29.1h12.5v3h-9.4v5.3h8.3v3.1h-8.3v5.3h9.7v3.1
		L24.1,48.9z M46.2,29.1l5,12.7c0,0.1,0.1,0.2,0.1,0.4c0.1,0.2,0.1,0.4,0.2,0.6c0-0.2,0.1-0.4,0.2-0.6c0-0.1,0.1-0.3,0.1-0.4l5-12.7
		h3.1l-0.5,1.2c-0.3,0.7-0.6,1.5-1,2.4l-1.3,3.2c-0.5,1.2-1,2.4-1.5,3.6c-0.5,1.2-0.9,2.3-1.4,3.5L53,46.2l-1,2.4l-0.5,1.2L51,48.6
		l-1-2.4L48.7,43c-0.5-1.2-1-2.4-1.5-3.6s-1-2.4-1.5-3.5l-1.3-3.2c-0.3-0.8-0.7-1.6-1-2.4L43,29.1H46.2z M143.6,48.9V29.1h3.2v8.3h9
		v-8.3h3.2v19.8h-3.2v-8.4h-9v8.4H143.6L143.6,48.9z M175.6,49.1c-1,0-1.9-0.2-2.9-0.5c-0.9-0.3-1.6-0.8-2.3-1.5
		c-0.7-0.7-1.2-1.4-1.6-2.3c-0.4-1-0.6-2-0.6-3V29.1h3.1v12.7c0,0.6,0.1,1.1,0.3,1.6c0.4,1,1.2,1.8,2.2,2.2c0.5,0.2,1.1,0.3,1.6,0.3
		c0.6,0,1.1-0.1,1.6-0.3c0.5-0.2,0.9-0.5,1.3-0.9c0.8-0.8,1.2-1.9,1.2-3V29.1h3.2v12.7c0,1-0.2,2-0.6,3c-0.4,0.9-0.9,1.6-1.6,2.3
		c-0.7,0.6-1.5,1.1-2.3,1.5C177.6,49,176.6,49.1,175.6,49.1z M192.3,48.9V29.1h5.1c0.9,0,1.7,0.1,2.5,0.3c0.7,0.2,1.4,0.5,1.9,0.9
		c0.5,0.4,1,1,1.2,1.6c0.3,0.8,0.4,1.6,0.4,2.4c0,0.5,0,1-0.1,1.5c-0.1,0.5-0.2,0.9-0.5,1.3c-0.2,0.4-0.5,0.8-0.8,1.1
		c-0.4,0.3-0.8,0.6-1.3,0.7c0.4,0.1,0.9,0.3,1.3,0.5c0.4,0.2,0.8,0.5,1.2,0.9c0.4,0.4,0.6,0.9,0.8,1.4c0.2,0.6,0.3,1.3,0.3,1.9
		c0,0.9-0.2,1.7-0.5,2.5c-0.3,0.7-0.8,1.2-1.4,1.7c-0.6,0.5-1.3,0.8-2,1c-0.8,0.2-1.6,0.3-2.4,0.3C198.2,48.9,192.3,48.9,192.3,48.9
		z M195.4,32.1v5.4h2.4c0.7,0.1,1.5-0.2,1.9-0.8c0.4-0.6,0.7-1.3,0.6-2c0.1-0.8-0.2-1.5-0.8-2c-0.6-0.5-1.3-0.7-2.1-0.6L195.4,32.1z
		 M195.4,40.3v5.6h2.5c0.4,0,0.9-0.1,1.3-0.2c0.4-0.1,0.8-0.3,1.1-0.5c0.3-0.2,0.6-0.5,0.7-0.9c0.2-0.4,0.3-0.8,0.3-1.2
		c0-0.5-0.1-0.9-0.3-1.3c-0.2-0.4-0.5-0.6-0.8-0.9c-0.4-0.2-0.8-0.4-1.2-0.5c-0.4-0.1-0.9-0.1-1.4-0.1L195.4,40.3z M102,37.7
		l15.2-27.4l-1.5-0.9l-15.2-9.2l-15,9.6l-0.8,0.5l15.2,27.4L84.7,65.1h0.1L101,75l16.2-9.9h0.1L102,37.7z M100.5,2.4l13.1,7.9
		L101,18l-12.7-7.7C88.3,10.3,100.5,2.4,100.5,2.4z M87.8,12.2l13.2,8l13.2-8L101,35.8C101,35.8,87.8,12.2,87.8,12.2z M101,39.5
		l13.2,23.8L100.5,55l-12.7,8.1L101,39.5z M101,72.8l-12.8-7.7l12.3-7.9l13.1,7.9L101,72.8z"/>
	<path class="st0" d="M85,47.6l-15.7-9.9L85,27.6l0.9,1.6l-13.1,8.4L85.9,46L85,47.6z M116.9,47.6L116,46l13.1-8.5L116,29.2l0.9-1.6
		l15.7,9.9L116.9,47.6z"/>
</g>
<g id="Layer_1_1_">
	<g>
		<g>
			<path class="st1" d="M4.1,27.2h4.6c1.8,0,3.3,0.3,4.6,0.9c1.3,0.6,2.3,1.4,3.1,2.4s1.4,2.1,1.7,3.3c0.4,1.2,0.5,2.5,0.5,3.7
				c0,1.5-0.2,2.8-0.7,4s-1.1,2.2-2,3.1c-0.8,0.8-1.8,1.5-2.9,1.9c-1.1,0.4-2.2,0.7-3.4,0.7H4.1C4.1,47.2,4.1,27.2,4.1,27.2z
				 M9.1,44c0.9,0,1.8-0.1,2.6-0.4s1.5-0.7,2-1.3c0.6-0.6,1-1.3,1.3-2.1c0.3-0.8,0.5-1.8,0.5-2.9c0-1.2-0.2-2.3-0.6-3.2
				c-0.4-0.9-0.9-1.6-1.5-2.1c-0.6-0.5-1.2-0.9-2-1.2c-0.7-0.2-1.4-0.4-2.1-0.4H6.9V44H9.1z"/>
			<path class="st1" d="M26.5,47.2v-20h11.9v3h-8.9v5.4h7.9v3.1h-7.9V44h9.2v3.1L26.5,47.2L26.5,47.2z"/>
			<path class="st1" d="M47.5,27.2l4.8,12.9c0,0,0,0.1,0.1,0.4c0.1,0.2,0.1,0.4,0.1,0.6c0-0.2,0.1-0.4,0.1-0.6
				c0.1-0.2,0.1-0.4,0.1-0.4l4.8-12.9h3c-0.1,0.2-0.2,0.6-0.5,1.2c-0.2,0.7-0.6,1.5-0.9,2.4c-0.4,1-0.8,2-1.2,3.2
				c-0.5,1.2-0.9,2.4-1.4,3.6s-0.9,2.4-1.4,3.6c-0.4,1.2-0.9,2.3-1.2,3.2c-0.4,1-0.7,1.8-0.9,2.4c-0.3,0.6-0.4,1.1-0.5,1.2
				c-0.1-0.2-0.2-0.6-0.5-1.2c-0.2-0.6-0.6-1.5-0.9-2.4c-0.4-1-0.8-2-1.2-3.2c-0.5-1.2-0.9-2.4-1.4-3.6s-0.9-2.4-1.4-3.6
				c-0.4-1.2-0.9-2.2-1.2-3.2c-0.4-1-0.7-1.8-0.9-2.4c-0.2-0.7-0.4-1.1-0.5-1.2C44.5,27.2,47.5,27.2,47.5,27.2z"/>
			<path class="st1" d="M140.1,47.2v-20h3v8.3h8.5v-8.3h3c0,0.2,0,0.8,0,1.8s0,2.2,0,3.6c0,1.4,0,2.9,0,4.5s0,3.1,0,4.5s0,2.6,0,3.6
				s0,1.6,0,1.8h-3v-8.4h-8.5V47h-3V47.2z"/>
			<path class="st1" d="M170.5,47.4c-1,0-1.9-0.2-2.7-0.5c-0.8-0.4-1.6-0.9-2.2-1.5c-0.6-0.6-1.1-1.4-1.5-2.3s-0.5-1.9-0.5-3V27.2h3
				V40c0,0.6,0.1,1.1,0.3,1.6s0.5,1,0.8,1.3c0.4,0.4,0.8,0.7,1.2,0.9c0.5,0.2,1,0.3,1.5,0.3c0.6,0,1.1-0.1,1.6-0.3
				c0.5-0.2,0.9-0.5,1.3-0.9c0.4-0.4,0.6-0.8,0.8-1.3s0.3-1.1,0.3-1.6V27.2h3v12.9c0,1.1-0.2,2.1-0.5,3c-0.4,0.9-0.9,1.7-1.5,2.3
				c-0.6,0.6-1.4,1.1-2.2,1.5C172.4,47.2,171.4,47.4,170.5,47.4z"/>
			<path class="st1" d="M186.3,47.2v-20h4.9c0.9,0,1.7,0.1,2.4,0.3s1.3,0.5,1.8,0.9s0.9,1,1.2,1.6c0.3,0.7,0.4,1.5,0.4,2.4
				c0,0.5,0,1-0.1,1.5c-0.1,0.5-0.2,0.9-0.4,1.3s-0.5,0.8-0.8,1.1c-0.3,0.3-0.7,0.5-1.2,0.7c0.4,0.1,0.8,0.2,1.2,0.5
				c0.4,0.2,0.8,0.5,1.1,0.9s0.6,0.8,0.8,1.4s0.3,1.2,0.3,2c0,1-0.2,1.8-0.5,2.5s-0.8,1.2-1.3,1.7c-0.5,0.4-1.2,0.8-1.9,1
				s-1.5,0.3-2.2,0.3L186.3,47.2L186.3,47.2z M189.3,30.2v5.4h2.3c0.8,0,1.5-0.3,1.9-0.8s0.6-1.2,0.6-2c0-0.9-0.2-1.6-0.7-2
				s-1.2-0.6-2-0.6C191.4,30.2,189.3,30.2,189.3,30.2z M189.3,38.5v5.6h2.4c0.4,0,0.9-0.1,1.3-0.2c0.4-0.1,0.7-0.3,1-0.5
				s0.5-0.5,0.7-0.9s0.2-0.8,0.2-1.2c0-0.5-0.1-1-0.3-1.3c-0.2-0.4-0.5-0.6-0.8-0.9c-0.3-0.2-0.7-0.4-1.1-0.5
				c-0.4-0.1-0.8-0.1-1.3-0.1H189.3z"/>
		</g>
		<g>
			<g>
				<g>
					<g>
						<polygon class="st1" points="85.5,47.3 70.3,37.7 85.5,28 86.4,29.5 73.6,37.7 86.4,45.8 						"/>
					</g>
				</g>
			</g>
			<g>
				<g>
					<g>
						<polygon class="st1" points="116.5,47.3 115.6,45.8 128.3,37.6 115.6,29.5 116.5,28 131.7,37.6 						"/>
					</g>
				</g>
			</g>
			<g>
				<g>
					<polygon class="st2" points="88.2,13 101,20.7 113.7,13 101,35.9 					"/>
				</g>
			</g>
			<g>
				<g>
					<polygon class="st2" points="101,39.5 88.2,62.4 100.5,54.6 113.8,62.6 					"/>
				</g>
			</g>
			<g>
				<g>
					<polygon class="st3" points="88.6,11.1 100.6,3.5 113.3,11.2 101,18.6 					"/>
				</g>
			</g>
			<g>
				<path class="st1" d="M102,37.7l14.8-26.6l-1.5-0.9l0,0l-14.7-8.9l-14.5,9.3l-0.8,0.5l14.8,26.6L85.3,64.3h0.1l0,0l15.8,9.6
					l15.8-9.6l0,0h0.1L102,37.7z M100.6,3.5l12.7,7.7L101,18.7l-12.4-7.5L100.6,3.5z M88.2,13l12.8,7.8l12.8-7.8L101,35.9L88.2,13z
					 M101,39.5l12.8,23.1l-13.3-8l-12.3,7.9L101,39.5z"/>
			</g>
		</g>
	</g>
</g>
</svg>
